<svg xmlns="http://www.w3.org/2000/svg" width="1840" height="1238" fill="none" viewBox="0 0 1840 1238">
  <path fill="#0F1F30" d="M1524.09 595.315c0 374.324-244.95 470.855-593.684 470.855-343.644 0-590.026-119.37-590.026-470.855 0-301 264.985-502.884 591.858-502.884 326.872 0 591.852 201.884 591.852 502.884Z"/>
  <path fill="#5867E8" d="M1317.8 892.915 962.621 139.528c-13.703-26.399-47.349-26.399-61.052 0L562.94 892.915c-44.59 85.94 222.994 148.805 368.737 148.805 138.853 0 432.663-59.099 386.123-148.805Z"/>
  <path fill="#0F1F30" d="M700.601 893.029c1.728-7.51 21.419.47 41.899-3.64 15.729-3.148 13.108-19.279 70.954-16.806 56.141 2.393 53.279-16.439 91.687-16.588 26.318-.103 27.99 6.972 55.762 3.56 18.992-2.323 27.315-12.558 44.907-12.558 24.94 0 36.76 12.032 52.19 12.65 17.54.698 22.45-9.216 39.66-8.346 20.64 1.042 23.86 13.921 58.17 10.819 7.95-.721 10.35 7.498 6.77 14.802-1.74 3.537-11.4 20.503-43.12 21.694-20.56.767-25.24-1.591-47.92 5.655-22.69 7.258-29.31 22.003-60.1 22.278-53.693.492-57.597-9.17-86.045-2.691-19.508 4.454-37.412 17.79-61.075 17.252-23.663-.538-50.485-14.367-73.576-13.783-57.216 1.477-94.422-15.809-90.163-34.298Z"/>
  <path fill="#fff" d="M651.535 827.158c-4.591 0-9.193-.893-13.543-2.713l-13.497-5.644.882-2.118 13.497 5.644a32.866 32.866 0 0 0 30.165-2.507l4.579-2.885a35.059 35.059 0 0 1 36.187-.744l13.199 7.567-1.133 1.981-13.199-7.567a32.762 32.762 0 0 0-33.829.698l-4.579 2.885a35.1 35.1 0 0 1-18.729 5.403Zm502.215 7.498c-5.11 0-10.25-1.134-14.91-3.412l-17.28-8.448c-8.63-4.225-19.34-4.202-27.95.068l-1.02-2.049c9.37-4.648 20.57-4.671 29.98-.08l17.28 8.449c9.28 4.544 20.58 4.201 29.49-.893l11.15-6.365c9.22-5.266 21.01-5.793 30.79-1.351l17.39 7.899-.95 2.083-17.39-7.899c-9.11-4.132-20.11-3.652-28.71 1.26l-11.15 6.365c-5.08 2.907-10.9 4.373-16.72 4.373Zm-107.4-1.831-26.59-11.517a32.045 32.045 0 0 0-24.994-.126l-26.044 10.967-.893-2.106 26.044-10.967c8.527-3.595 18.297-3.549 26.787.125l26.59 11.517-.9 2.107Zm-181.186 12.043a34.226 34.226 0 0 1-15.557-3.732l-7.659-3.903a31.91 31.91 0 0 0-26.467-1.168l-18.191 7.338-.859-2.129 18.191-7.338a34.206 34.206 0 0 1 28.368 1.259l7.658 3.904c9.09 4.636 19.943 4.636 29.044 0l8.551-4.362 1.042 2.038-8.551 4.361a34.16 34.16 0 0 1-15.57 3.732Zm55.523 91.813a34.233 34.233 0 0 1-15.558-3.732l-7.658-3.904a31.92 31.92 0 0 0-26.468-1.168l-18.191 7.338-.858-2.129 18.19-7.338a34.214 34.214 0 0 1 28.368 1.259l7.659 3.904c9.09 4.636 19.954 4.636 29.043 0l8.552-4.362 1.042 2.038-8.552 4.362a34.17 34.17 0 0 1-15.569 3.732Zm-250.744-70.794a42.619 42.619 0 0 1-16.244-3.206l-12.799-5.277.87-2.118 12.799 5.277c10.28 4.248 21.98 4.03 32.1-.583l9.65-4.396c10.452-4.774 22.587-5.095 33.268-.882l21.533 8.483-.835 2.129-21.534-8.483c-10.12-3.983-21.591-3.674-31.482.836l-9.65 4.396a42.717 42.717 0 0 1-17.676 3.824Zm299.466 36.701-1.236-1.934 23.365-14.906c9.592-6.124 21.362-6.777 31.472-1.763l18.49 9.182c9.16 4.544 19.48 4.144 28.33-1.099l14.6-8.644c8.03-4.762 17.27-5.827 26.02-3.01l22.57 7.281-.7 2.175-22.57-7.281c-8.12-2.622-16.69-1.626-24.16 2.805l-14.59 8.643c-9.39 5.563-20.8 5.998-30.52 1.179l-18.49-9.181c-9.38-4.66-20.31-4.042-29.216 1.648l-23.365 14.905Zm-89.591-15.626-1.145-1.98 20.869-12.067a22.061 22.061 0 0 1 21.179-.526l8.517 4.384a19.711 19.711 0 0 0 14.963 1.294l13.531-4.213.687 2.187-13.531 4.213c-5.576 1.74-11.494 1.224-16.692-1.443l-8.528-4.384c-6.022-3.103-13.119-2.92-18.981.469l-20.869 12.066Zm-126.202 23.216-1.031-2.049 18.569-9.353a19.42 19.42 0 0 1 16.038-.653l15.684 6.354a17.139 17.139 0 0 0 15.867-1.568l11.013-7.258c4.991-3.297 11.356-4.099 17-2.152l22.152 7.612-.744 2.164-22.152-7.613a17.215 17.215 0 0 0-14.997 1.901l-11.013 7.257a19.452 19.452 0 0 1-17.984 1.786l-15.684-6.353a17.153 17.153 0 0 0-14.15.572l-18.568 9.353Zm-134.891 15.409c-5.335 0-10.658-1.248-15.592-3.743l-23.068-11.654 1.031-2.049 23.067 11.654c8.918 4.51 19.221 4.659 28.277.423l12.901-6.044c8.483-3.973 18.351-4.328 27.098-.962l21.018 8.082-.824 2.141-21.019-8.082c-8.162-3.137-17.378-2.816-25.299.904l-12.902 6.045c-4.694 2.186-9.697 3.285-14.688 3.285Zm580.505-53.771c-5.53 0-11.05-1.064-16.24-3.205l-12.8-5.278.87-2.117 12.8 5.277c10.28 4.247 21.98 4.03 32.1-.584l9.65-4.396c10.46-4.773 22.59-5.094 33.27-.881l21.53 8.483-.83 2.129-21.53-8.483c-10.12-3.984-21.6-3.686-31.49.836l-9.65 4.396c-5.58 2.553-11.63 3.823-17.68 3.823Zm22.12 53.771c-5.33 0-10.65-1.248-15.59-3.743l-23.07-11.654 1.04-2.049 23.06 11.654c8.92 4.51 19.22 4.659 28.28.423l12.9-6.044c8.48-3.973 18.36-4.328 27.1-.962l21.02 8.082-.83 2.141-21.02-8.082c-8.16-3.137-17.37-2.816-25.3.904l-12.9 6.045c-4.69 2.186-9.69 3.285-14.69 3.285Zm-432.142 37.87a41.588 41.588 0 0 1-17.046-3.652l-15.455-6.972a39.264 39.264 0 0 0-31.928-.137l-14.47 6.376-.928-2.095 14.47-6.376a41.571 41.571 0 0 1 33.795.137l15.454 6.972c11.437 5.163 24.774 4.51 35.649-1.752l1.145 1.981a41.46 41.46 0 0 1-20.686 5.518Zm353.412-.961c-4.96 0-9.93-1.076-14.6-3.24l-15.48-7.189c-10.21-4.74-22.34-3.778-31.67 2.507l-2.6 1.751c-10 6.732-23 7.762-33.93 2.679l-17.36-8.059c-9.02-4.19-19.29-4.03-28.173.446l-18.316 9.227-1.031-2.049 18.317-9.227c9.513-4.785 20.503-4.957 30.163-.469l17.36 8.059c10.21 4.74 22.34 3.789 31.69-2.496l2.59-1.751c10-6.732 22.99-7.762 33.92-2.69l15.48 7.189c10.05 4.671 21.64 3.904 30.99-2.061l4.31-2.736 1.22 1.935-4.3 2.736c-5.67 3.606-12.12 5.438-18.58 5.438Zm-231.343 39.044c-5.335 0-10.681-.93-15.764-2.835l-33.382-12.467a42.753 42.753 0 0 0-30.406.172l-20.824 8.048-.824-2.141 20.824-8.048a45.082 45.082 0 0 1 32.031-.183l33.382 12.467c11.185 4.177 23.709 3.477 34.356-1.923l14.47-7.35a45.152 45.152 0 0 1 37.125-1.671l22.175 8.849-.85 2.129-22.172-8.849a42.837 42.837 0 0 0-35.237 1.58l-14.47 7.349a45.189 45.189 0 0 1-20.434 4.873Zm-386.94-420.513h-2.29v-338c0-1.477.848-2.759 2.21-3.343 1.362-.584 2.873-.298 3.938.721L736.81 481.933l-1.728 1.5-208.547-241.448c-.527-.492-1.191-.275-1.385-.195a1.314 1.314 0 0 0-.813 1.237v338Z"/>
  <path fill="#5867E8" d="m1202.37 471.367 15.72-34.538-173.66 83.341-73.075 91.881 36.435 43.033 75.97-33.268 118.61-150.449Z"/>
  <path fill="#fff" d="M928.105 351.977 779.076 562.241l57.205 82.837L994.743 597.1l126.687-16.875-178.374-228.534c-3.812-4.957-11.333-4.82-14.951.286Z"/>
  <path fill="#5867E8" d="m933.543 356.212-18.374 129.877 53.966-10.406-29.914-119.643c-.755-3.045-5.105-2.907-5.678.172ZM673.481 458.854l-37.057-47.508c-9.239-3.961-19.038 5.323-13.074 18.19 8.002 17.264 29.673 70.096 29.673 70.096l88.172 211.157 22.759-49.959-90.473-201.976ZM536.14 231.579c24.545 26.822 206.12 223.726 257.418 280.176-1.328 7.407-11.906 8.334-11.906 8.334L533.988 234.132c-1.179-1.363.561-4.293 2.152-2.553Z"/>
  <path fill="#fff" d="M1037.12 627.494c-5.72 4.419-12.63 6.937-35.67-5.449-98.461-52.924-313.751-177.867-365.038-210.711-3.01-1.923-6.742 1.031-5.563 4.408l116.768 312.242c7.007 15.374 23.125 23.205 39.942 21.499l159.836-14.814c2.221-.229 4.442-.515 6.651-.881l136.984-22.301a14.608 14.608 0 0 0 10.9-8.219c18.9-40.194 113.13-240.693 118.01-252.885 4.43-11.093-.15-16.92-5.32-11.482-6.38 6.754-109.96 122.767-177.5 188.593Z"/>
  <path fill="#5867E8" d="M1094.76 705.614c2.01-.858 2.65-3.377 1.26-5.06-13.99-16.851-39.38-47.165-61.16-62.46a16.724 16.724 0 0 0-12.76-2.724c-44.574 8.574-185.636 76.232-235.995 100.764-3.205 1.557-1.9 8.529 1.66 8.197.046 0 .092-2.072.137-2.072l159.767-13.795c2.221-.206 4.442-.48 6.652-.824l136.909-21.018c1.22-.195 2.41-.538 3.53-1.008Z"/>
  <path fill="#fff" d="m680.664 386.229-9.941 9.381 1.571 1.666 9.941-9.381-1.571-1.666Z"/>
  <path fill="#fff" d="M663.727 407.11c-1.236 0-2.244-.412-2.931-1.213-1.74-2.038-.515-5.839 2.771-8.655 3.297-2.816 7.235-3.423 8.975-1.397.916 1.065 1.053 2.61.401 4.35-.573 1.512-1.695 3.034-3.183 4.305-1.477 1.271-3.171 2.141-4.739 2.473a6.514 6.514 0 0 1-1.294.137Zm5.884-10.189c-1.179 0-2.919.676-4.545 2.061-2.369 2.026-3.285 4.533-2.518 5.426.343.401 1.076.515 2.026.321 1.191-.241 2.542-.962 3.721-1.969 1.179-1.008 2.095-2.233 2.518-3.366.344-.904.344-1.66 0-2.061-.24-.274-.664-.412-1.202-.412Zm-65.309-95.671-8.6 7.764 1.534 1.699 8.6-7.763-1.534-1.7Z"/>
  <path fill="#fff" d="M588.595 320.3c-1.26 0-2.347-.412-3.046-1.27-1.694-2.072-.389-5.85 2.965-8.586 1.512-1.237 3.217-2.072 4.797-2.359 1.832-.331 3.32.081 4.213 1.168.893 1.088.996 2.633.309 4.362-.595 1.488-1.763 2.999-3.274 4.224-1.969 1.614-4.156 2.461-5.964 2.461Zm5.907-10.039a3.74 3.74 0 0 0-.767.08c-1.191.217-2.565.904-3.767 1.877-2.415 1.969-3.388 4.453-2.644 5.369.744.905 3.377.447 5.781-1.522 1.202-.973 2.141-2.187 2.599-3.309.366-.904.378-1.648.046-2.049-.229-.298-.676-.446-1.248-.446Zm-55.949-80.243-6.425 6.624 1.643 1.594 6.425-6.623-1.643-1.595Z"/>
  <path fill="#fff" d="M525.597 248.327c-1.111 0-2.072-.343-2.748-1.076-1.832-1.957-.778-5.804 2.393-8.769 3.171-2.954 7.075-3.743 8.906-1.786 1.82 1.958.779 5.804-2.392 8.769-1.992 1.866-4.282 2.862-6.159 2.862Zm5.781-10.429c-1.179 0-2.965.756-4.579 2.267-2.278 2.129-3.08 4.671-2.278 5.529.801.859 3.4.229 5.666-1.9 2.278-2.129 3.08-4.671 2.278-5.529-.229-.241-.606-.367-1.087-.367Z"/>
  <path fill="#5867E8" d="M530.393 622.159c2.851-.538 5.312-1.121 7.35-1.694-4.259-21.396-10.738-37.835-14.711-37.08-3.972.756-3.984 18.432-.103 39.896a97.154 97.154 0 0 0 7.464-1.122Z"/>
  <path fill="#fff" d="M531.034 625.536c-2.427.458-5.003.881-7.464 1.156 4.258 21.66 10.818 38.385 14.825 37.629 4.007-.755 3.984-18.728 0-40.445-2.381.641-4.934 1.191-7.361 1.66Zm7.625 121.085h-2.29v50.268h2.29v-50.268Zm0-78.956h-2.29v56.736h2.29v-56.736Zm-1.145 74.709c-4.19 0-5.381-7.499-5.667-9.25-.515-3.091 2.542-5.667 5.667-5.667 3.137 0 6.193 2.587 5.667 5.667-.287 1.74-1.363 9.25-5.667 9.25Z"/>
  <path fill="#fff" d="M537.537 837.895c-7.716 0-14.001-6.285-14.001-14.001 0-5.93 3.034-9.17 5.953-12.295 3.389-3.629 6.903-7.372 6.903-15.832h2.29c0 9.364-3.996 13.634-7.51 17.4-2.862 3.068-5.335 5.713-5.335 10.739 0 6.456 5.255 11.711 11.711 11.711 6.457 0 11.712-5.255 11.712-11.711 0-2.347-.687-4.602-1.992-6.537l1.9-1.282a13.942 13.942 0 0 1 2.381 7.819c-.011 7.704-6.296 13.989-14.012 13.989Z"/>
  <path fill="#fff" d="m541.451 823.952-.606-2.21c5.758-1.568 5.861-6.033 5.861-6.067l2.29.023c-.012 2.14-1.614 6.64-7.545 8.254Zm-24.964-281.663-2.246.444 7.606 38.465 2.246-.445-7.606-38.464Z"/>
  <path fill="#5867E8" d="M1016.4 580.717c6.3-12.959 19.67-23.033 37.76-22.323 3.78-10.372 21.17-41.499 17.86-64.601-3.03-21.121-20-28.574-34.44-33.324-1.77-.584-3.46-1.134-5.09-1.66 18.19 17.629 7.7 53.129.74 75.121-5.17 16.359-12.96 36.828-16.83 46.787Z"/>
  <path fill="#fff" d="M1078.7 570.563c9.63-7.315 20.39-6.262 28.6-3.96-16.8-7.533-43.82-7.384-53.14-8.209-20.81-.824-35.38 12.639-40.12 28.334-6.57 21.762-8.65 27.017-8.65 27.017 17.17-.687 28.93-1.626 52.13-7.773 13.13-12.169 5.8-23.72 21.18-35.409Z"/>
  <path fill="#5867E8" d="M1033.23 533.941c6.95-21.991 17.44-57.491-.74-75.121-17.88-5.736-28.89-8.243-48.61-9.433 0 0-45.643.309-56.999 7.464-25.724 16.233-47.372 53.049-70.188 83.467 0 0 110.873 65.104 145.787 82.425 1.25-2.565.99-5.186 2.9-8.987 0 0 2.09-5.255 8.65-27.017a40.366 40.366 0 0 1 2.36-6.01c3.88-9.971 11.67-30.44 16.84-46.788Z"/>
  <path fill="#fff" d="M1122.28 599.137c.6-9.204-4.71-23.548-17.28-34.595-2.22-1.958-4.97-3.595-8.05-4.98-8.21-2.301-18.96-3.354-28.6 3.961-15.38 11.688-10.37 21.144-21.19 35.42-2 2.644-4.21 6.25-4.19 8.162.08 5.724 7.36 6.422 9.57 4.946 5.55-3.698 10.62-15.272 18.37-14.928 16.87.744 12.35 25.437 12.66 28.31.36 3.515 7.51 5.965 11.53 1.443 2.07 3.881 11.32.996 12.5-9.582 4.4.515 7.59-2.748 7.98-11.013 2.02 1.145 6.25-.115 6.7-7.144Z"/>
  <path fill="#5867E8" d="M856.705 540.318s24.555 14.401 54.137 31.413c14.333-18.74 32.672-42.472 40.079-51.115 14.424-16.84 16.187-39.072 5.838-53.141-5.06-6.869-11.482-12.707-23.914-13.074-2.439.71-4.488 1.523-5.953 2.45-25.735 16.233-47.383 53.038-70.187 83.467Z"/>
  <path fill="#fff" d="M957.927 576.012a203.868 203.868 0 0 1-4.007-5.358c-9.73-13.588-20.984-23.571-39.552-29.1-29.559-8.792-57.663-1.237-57.663-1.237 15.157 8.747 58.338 35.352 56.083 54.527-2.496 21.202-1.397 24.189 5.953 25.712-1.74 11.459 4.602 14.539 9.742 13.566-1.866 10.704 9.948 12.1 13.783 4.888 5.129 2.312 9.926.836 11.975-1.523 6.021-6.937 11.322-23.159 11.814-34.286-1.637-15.066-8.105-27.143-8.105-27.143l-.023-.046Z"/>
  <path fill="#fff" d="M976.175 595.325c-6.812-5.712-12.81-12.283-18.248-19.312l.023.045s6.479 12.089 8.105 27.143c6.399 3.492 12.421 6.801 19.186 10.407 1.363-6.846-3.182-13.349-9.066-18.283Z"/>
  <path fill="#000" d="M964.967 601.976c-.125-4.304-1.373-9.444-1.396-9.502l2.221-.549c.057.217 1.316 5.438 1.454 9.982l-2.279.069Z"/>
  <path fill="#fff" d="M1054.99 411.494c-11.24-16.714-31.16-11.596-45.51 6.262-5.59-3.617-15.16 5.392-10.947 13.852a3.154 3.154 0 0 1-.515 3.549s-4.785 15.478 2.562 27.624c7.35 12.135 22.57 6.663 22.57 6.663 7.7-3.297 14.36-7.934 14.36-7.934 17.14-12.798 27.83-34.641 17.48-50.016Z"/>
  <path fill="#000" d="m947.074 635.37-2.118-.858c5.083-12.536 4.694-25.014 4.682-25.14l2.29-.08c.023.527.423 13.096-4.854 26.078Zm-16.805-4.533-2.141-.824c3.423-8.918 4.923-15.89 5.197-24.064l2.29.08c-.286 8.437-1.832 15.627-5.346 24.808Zm-10.853-12.833-2.106-.905c2.953-6.88 3.319-14 3.274-17.641l2.289-.034c.046 3.823-.332 11.31-3.457 18.58Zm177.684 4.453-2.27-.332c.37-2.473.58-5.198.59-8.105.04-7.133-1.96-13.303-3.66-17.218l2.11-.905c1.78 4.122 3.89 10.613 3.84 18.145-.02 3-.22 5.827-.61 8.415Zm9.87-9.914c-.23-11.78-3.95-20.95-3.99-21.041l2.12-.87c.16.389 3.92 9.662 4.16 21.865l-2.29.046Zm7.79-9.72c-.48-8.7-3.43-15.706-3.47-15.775l2.11-.904c.13.297 3.15 7.452 3.65 16.553l-2.29.126Zm-59.77-191.329c-11.24-16.714-31.16-11.596-45.51 6.262l3.29 7.9c.61 1.453 2.51 1.808 3.61.675l8.61-8.987c1.77-1.854 4.91-.984 5.44 1.523 1.03 4.877 3.57 11.505 9.83 16.187 6.77 5.06 13.84 3.068 18-3.079 1.63-7.212.86-14.356-3.27-20.481Zm-19.03 39.313a2.407 2.407 0 0 1-.02-3.389l1.77-1.774c.92-.939 2.45-.939 3.39-.011.93.927.93 2.449.01 3.388l-1.77 1.775a2.38 2.38 0 0 1-3.38.011Zm-14.38-6.355a2.397 2.397 0 0 1-.01-3.388l1.76-1.775a2.404 2.404 0 0 1 3.39-.011c.94.927.94 2.45.01 3.389l-1.76 1.774c-.93.939-2.45.939-3.39.011Zm20.25 162.653c-.01-1.224.63-2.953 1.92-5.151.89-1.511 1.86-2.851 2.51-3.721 4.43-5.838 6.11-10.807 7.76-15.615 1.47-4.304 2.85-8.368 6.03-12.581l1.84 1.385c-2.97 3.927-4.3 7.819-5.69 11.94-1.62 4.751-3.45 10.12-8.11 16.268-.62.813-1.52 2.083-2.36 3.492-1.46 2.484-1.6 3.594-1.6 3.961l-2.3.022Zm40.56 3.996c-.75-5.369-2.65-9.101-5.63-11.082-1.62-1.065-3.6-1.66-5.9-1.763-3.7-.16-6.88 2.954-9.78 6.331l-1.74-1.488c3.28-3.824 6.96-7.35 11.61-7.132 2.73.126 5.1.835 7.07 2.14 3.56 2.359 5.79 6.629 6.64 12.673l-2.27.321Zm-147.027-69.283-1.809-1.408c7.728-9.891 13.28-16.806 16.485-20.549 13.669-15.947 16.096-37.698 5.793-51.711l1.843-1.362c10.933 14.871 8.46 37.813-5.896 54.561-3.182 3.72-8.7 10.612-16.416 20.469Zm88.027 23.777-2.16-.801c4.57-12.25 8.24-22.747 10.9-31.196 1.51-4.774 3.11-9.948 4.57-15.42l2.21.595c-1.47 5.518-3.08 10.715-4.59 15.512-2.68 8.483-6.37 19.015-10.93 31.31Zm-1.85-103.077c-2.3-2.049-6.79-3.893-6.83-3.904l.86-2.118c.19.08 4.89 2.004 7.5 4.316l-1.53 1.706Z"/>
  <path fill="#fff" d="M1000.58 462.769c-7.348-12.146-2.563-27.623-2.563-27.623-6.227 6.731-14.138 14.229-14.138 14.229-10.211 18.237-1.007 50.84 24.491 52.466 22.47 1.431 20.59-22.907 14.78-32.42 0 .011-15.22 5.483-22.57-6.652Z"/>
  <path fill="#000" d="M1006.45 470.097c-10.001-5.426-10.779-17.916-10.814-18.443l2.29-.126c.011.115.755 11.746 9.624 16.554l-1.1 2.015Z"/>
</svg>
