<svg xmlns="http://www.w3.org/2000/svg" width="1073" height="890" fill="none" viewBox="0 0 1073 890">
  <path fill="#C4C4DE" fill-rule="evenodd" d="m987 643 34.31-98.896c10.18-29.351 2.46-61.944-19.81-83.604l-.97-.941a100.007 100.007 0 0 1-29.543-83.764l12.87-105.772c6.67-54.824-32.366-104.675-87.19-111.346-2.794-.34-5.601-.561-8.414-.665L847 156.5l-84.183-80.357c-28.686-27.382-71.472-33.816-106.943-16.08l-95.325 47.662a100 100 0 0 1-49.843 10.426l-77.375-3.968c-41.28-2.116-77.892 26.301-86.081 66.817l-12.97 64.166a99.989 99.989 0 0 0-1.734 12.78l-12.164 172.538a65.997 65.997 0 0 1-6.295 23.835l-33.449 69.938a99.998 99.998 0 0 0-6.171 69.793L288 643h699Z" clip-rule="evenodd"/>
  <path fill="#8B8BB5" fill-rule="evenodd" d="m288 643-89.712 97.381c-26.568 28.84-24.727 73.757 4.113 100.325a70.999 70.999 0 0 0 44.886 18.708L912.78 889.63c39.172 1.779 72.368-28.535 74.147-67.706.049-1.073.073-2.147.073-3.221V643H288Z" clip-rule="evenodd"/>
  <mask id="a" width="650" height="408" x="423" y="0" maskUnits="userSpaceOnUse" style="mask-type:alpha">
    <path fill="#fff" d="M450.5 322V0h-27v335.5c0 7.456 6.044 13.5 13.5 13.5h220.221a86.498 86.498 0 0 1 44.615 12.394l50.402 30.344A113.499 113.499 0 0 0 810.779 408H1072.5v-27H810.779a86.498 86.498 0 0 1-44.615-12.394l-50.402-30.344A113.499 113.499 0 0 0 657.221 322H450.5Z"/>
  </mask>
  <g mask="url(#a)">
    <path fill="#FF8484" d="M450.5 322V0h-27v335.5c0 7.456 6.044 13.5 13.5 13.5h220.221a86.498 86.498 0 0 1 44.615 12.394l50.402 30.344A113.499 113.499 0 0 0 810.779 408H1072.5v-27H810.779a86.498 86.498 0 0 1-44.615-12.394l-50.402-30.344A113.499 113.499 0 0 0 657.221 322H450.5Z"/>
    <path fill="#DE6262" fill-rule="evenodd" d="M954 373h144v49H954v-49Zm-561-59h144v49H393v-49Zm22.5-116.5V75H476l-11.5 122.5h-49Zm287 106.5 116 55v49c-3.33 12.726-16.996 18.06-41 16-24.004-2.06-60.837-11.726-110.5-29l35.5-91Z" clip-rule="evenodd"/>
  </g>
  <path fill="#FFEECD" fill-rule="evenodd" d="M591 409 259 90.5 230 501l354.5-63 6.5-29Z" clip-rule="evenodd"/>
  <mask id="b" width="288" height="419" x="65" y="73" maskUnits="userSpaceOnUse" style="mask-type:alpha">
    <path fill="#fff" d="M126.707 485.94c65.254 26.333 154.997-43.403 200.446-155.76 45.45-112.357 29.394-224.787-35.86-251.12-65.254-26.334-154.997 43.403-200.446 155.76-45.45 112.357-29.394 224.787 35.86 251.12Z"/>
  </mask>
  <g mask="url(#b)">
    <path fill="#F5CB76" d="M228.036 501.127c70.097-6.162 118.399-109.04 107.886-229.784-10.514-120.744-75.861-213.632-145.958-207.47-70.097 6.162-118.4 109.04-107.886 229.784 10.514 120.744 75.861 213.632 145.958 207.47Z"/>
    <path fill="#fff" d="M346 424.5v18H238v-18h-51v-20h212v20h-53Zm-2 0H240v16h104v-16Zm-106-2h54v-16H189v16h49Zm56 0h103v-16H294v16Zm-80-283h-53v16h103v-16h-50Zm0-2h52v20H53v-20h54v-18h107v18Zm-55 18v-16H55v16h104Zm53-18v-16H109v16h103Zm-107 47h107v20H0v-20h105Zm0 18v-16H2v16h103Zm2 0h103v-16H107v16Z"/>
    <path stroke="#fff" stroke-width="2" d="M398 470.5H293v18h105v-18Zm53-46H346v18h105v-18Z"/>
  </g>
  <path fill="#353535" fill-rule="evenodd" d="M571.966 450c-17.288 28.847-17.288 45.565 0 50.155 17.287 4.589 31.965-9.507 44.034-42.288L571.966 450Z" clip-rule="evenodd"/>
  <path fill="#353535" d="M592.5 803c117.361 0 212.5-11.641 212.5-26s-95.139-26-212.5-26S380 762.641 380 777s95.139 26 212.5 26Z"/>
  <mask id="c" width="684" height="418" x="239" y="424" maskUnits="userSpaceOnUse" style="mask-type:alpha">
    <path fill="#fff" d="m849.394 764.785 22.959 16.224a6.297 6.297 0 0 1 1.147 9.241 9.924 9.924 0 0 1-11.018 2.834c-25.979-9.738-40.973-16.766-44.982-21.084L756 718.5 678 699l-5 102c-6.338.556-11.172.889-14.5 1-30 1-54.331 1.367-70.278 1.614-15.994.248-34.791 0-62.036-.838-2.538-.078-7.708-.637-15.509-1.676l10.479-109.359-64.432 65.417a100.045 100.045 0 0 1-16.968 13.816l-58.513 37.814a64.005 64.005 0 0 1-21.986 8.965L240 842c-1.746-14.214 4.087-27.047 17.5-38.5 11.706-9.995 50.698-16.771 78.5-18.5 2.657-.165 25.562-19.002 68.713-56.511a43.996 43.996 0 0 0 4.274-4.264l73.662-84.337a97.996 97.996 0 0 1 70.16-33.465L591 605l8.539-38.54h-20.798c-15.464 0-28-12.536-28-28 0-3.077.508-6.133 1.501-9.044l20.73-60.735C582.092 441.96 607.199 424 635.434 424h13.985c23.741 0 42.986 19.246 42.986 42.986 0 4.972-.862 9.906-2.549 14.583L643 611.5l126.748 46.391a100.014 100.014 0 0 1 43.716 31.438L848 732.5c30-1.333 46.333.333 49 5 2.215 3.875 10.061 12.463 23.54 25.764a6.807 6.807 0 0 1-3.29 11.486 26.01 26.01 0 0 1-22.023-5.131L889.5 765c-20.529 1.119-33.529 1.119-39 0-.37-.076-.739-.147-1.106-.215Z"/>
  </mask>
  <g mask="url(#c)">
    <path fill="#FFCDCD" d="m849.394 764.785 22.959 16.224a6.297 6.297 0 0 1 1.147 9.241 9.924 9.924 0 0 1-11.018 2.834c-25.979-9.738-40.973-16.766-44.982-21.084L756 718.5 678 699l-5 102c-6.338.556-11.172.889-14.5 1-30 1-54.331 1.367-70.278 1.614-15.994.248-34.791 0-62.036-.838-2.538-.078-7.708-.637-15.509-1.676l10.479-109.359-64.432 65.417a100.045 100.045 0 0 1-16.968 13.816l-58.513 37.814a64.005 64.005 0 0 1-21.986 8.965L240 842c-1.746-14.214 4.087-27.047 17.5-38.5 11.706-9.995 50.698-16.771 78.5-18.5 2.657-.165 25.562-19.002 68.713-56.511a43.996 43.996 0 0 0 4.274-4.264l73.662-84.337a97.996 97.996 0 0 1 70.16-33.465L591 605l8.539-38.54h-20.798c-15.464 0-28-12.536-28-28 0-3.077.508-6.133 1.501-9.044l20.73-60.735C582.092 441.96 607.199 424 635.434 424h13.985c23.741 0 42.986 19.246 42.986 42.986 0 4.972-.862 9.906-2.549 14.583L643 611.5l126.748 46.391a100.014 100.014 0 0 1 43.716 31.438L848 732.5c30-1.333 46.333.333 49 5 2.215 3.875 10.061 12.463 23.54 25.764a6.807 6.807 0 0 1-3.29 11.486 26.01 26.01 0 0 1-22.023-5.131L889.5 765c-20.529 1.119-33.529 1.119-39 0-.37-.076-.739-.147-1.106-.215Z"/>
    <path fill="#FFF9D6" fill-rule="evenodd" d="M568 603.5c9 15.333 24 24 45 26s36.333-3 46-15l106 21.406-44.5 81.594-22.5-3-19.686 87.976L494.054 815l27.639-121.901-27.639 51.766L417 659.284c33.289-32.727 62.743-52.487 88.361-59.281 25.618-6.793 46.498-5.628 62.639 3.497Z" clip-rule="evenodd"/>
  </g>
  <path fill="#353535" fill-rule="evenodd" d="m677.692 475.384 20.305 4.86c.179 34.502-8.881 49.492-27.179 44.97-9.149-2.261-14.329-7.826-15.541-16.695-7.689 6.275-15.691 7.994-24.008 5.154-16.87-5.758-17.654-22.649-2.353-50.673L678 474.703l-.308.681Z" clip-rule="evenodd"/>
  <mask id="d" width="143" height="70" x="564" y="414" maskUnits="userSpaceOnUse" style="mask-type:alpha">
    <path fill="#fff" d="M564 447.967 707 484c-5.928-5.587-8.762-9.851-8.502-12.793 2.949-33.352-15.553-43.89-53.536-52.136-38.166-8.286-49.812-9.22-66.083 19.074-1.376 2.393-6.335 5.667-14.879 9.822Z"/>
  </mask>
  <g mask="url(#d)">
    <path fill="#3C3CA0" d="M564 447.967 707 484c-5.928-5.587-8.762-9.851-8.502-12.793 2.949-33.352-15.553-43.89-53.536-52.136-38.166-8.286-49.812-9.22-66.083 19.074-1.376 2.393-6.335 5.667-14.879 9.822Z"/>
    <path fill="#26266F" fill-rule="evenodd" d="m593 437 108.5 29 3-11.5L597 422l-4 15Z" clip-rule="evenodd"/>
  </g>
  <path fill="#F5CB76" d="M587.5 443c10.77 0 19.5-8.73 19.5-19.5s-8.73-19.5-19.5-19.5-19.5 8.73-19.5 19.5 8.73 19.5 19.5 19.5Z"/>
  <path fill="#FFEECD" d="M587.5 438c8.56 0 15.5-6.492 15.5-14.5s-6.94-14.5-15.5-14.5c-8.56 0-15.5 6.492-15.5 14.5s6.94 14.5 15.5 14.5Z"/>
  <path fill="#353535" d="M581.331 473.876c-2.119-5.007-5.187-7.376-9.331-7.376v-3c5.173 0 9.104 2.842 11.685 8.294 10.035-5.98 18.462-3.798 24.601 6.434a1.5 1.5 0 0 1-2.572 1.544c-5.498-9.162-12.443-10.691-21.599-4.711l-20.743 35.096 12.161 2.371a1.5 1.5 0 1 1-.574 2.944l-14.246-2.777a1.499 1.499 0 0 1-1.004-2.235l21.622-36.584ZM593 488a4 4 0 1 1 0-8 4 4 0 0 1 0 8Zm-21-6a4 4 0 1 1 0-8 4 4 0 0 1 0 8Zm-6.359 50.666c-4.552-1.242-7.41-5.01-6.383-8.415 1.027-3.405 5.55-5.159 10.101-3.917 4.552 1.242 7.409 5.01 6.383 8.415-1.027 3.405-5.55 5.159-10.101 3.917Zm-11.549 13.315a1.5 1.5 0 0 1 2.815 1.038l-3.5 9.5a1.5 1.5 0 1 1-2.815-1.038l3.5-9.5Zm6 2a1.5 1.5 0 0 1 2.815 1.038l-3.5 9.5a1.5 1.5 0 1 1-2.815-1.038l3.5-9.5Zm6 2a1.5 1.5 0 0 1 2.815 1.038l-3.5 9.5a1.5 1.5 0 1 1-2.815-1.038l3.5-9.5Z"/>
  <path fill="#8B8BB5" fill-rule="evenodd" d="M732 155.5v20H519v-20h20v-20h212v20h-19Zm-88 41h107v20H644v-20Zm-243 364v19H293v-19h-53v-20h212v20h-51Zm572-254h54v20H814v-20h-53v-20h212v20ZM894 533h71v20H858v-19h-71v-20h107v19Z" clip-rule="evenodd"/>
  <path stroke="#fff" stroke-width="2" d="M106 120.5H1v18h105v-18Z"/>
  <path fill="#8B8BB5" fill-rule="evenodd" d="M643 337h9v20h-9v-20Zm226 58h9v20h-9v-20Z" clip-rule="evenodd"/>
  <path fill="#FF8484" fill-rule="evenodd" d="M741 785H579v18.5h-15v-62a7.5 7.5 0 0 1 15 0V770h162v-28.5a7.5 7.5 0 0 1 15 0v52l-15 2V785Z" clip-rule="evenodd"/>
  <path fill="#353535" d="M287.126 818.046A15.611 15.611 0 0 0 276 833a1.5 1.5 0 0 0 3 0 12.61 12.61 0 0 1 8.988-12.08l14.943-4.483c.449-.135.809-.471.973-.91.595-1.585 4.751-4.302 12.212-7.659 6.92-3.114 10.795-3.631 15.458-3.035l.636.082c.249.032.44.055.624.076a1.5 1.5 0 0 0 .332-2.982c-.164-.018-.34-.04-.573-.07l-.639-.082c-5.197-.664-9.63-.073-17.07 3.275-7.535 3.391-11.949 6.14-13.435 8.617l-14.323 4.297Z"/>
  <path fill="#FFCDCD" fill-rule="evenodd" d="M648 522.659c20.279 5.266 32.074 1.333 35.385-11.8 2.511-9.959-2.746-18.176-14.278-15.39-2.45.592-7.152 5.102-14.107 13.531l-7 13.659Z" clip-rule="evenodd"/>
  <path fill="#353535" d="m865.709 749.486 15.244-2.14a28.498 28.498 0 0 1 22.319 6.424l18.262 15.378a1.5 1.5 0 0 0 1.932-2.295l-18.261-15.378a31.5 31.5 0 0 0-24.669-7.1l-15.244 2.14a1.5 1.5 0 1 0 .417 2.971ZM626 156.5h-87v-2h106v-19h2v19h85v2H628v19h-2v-19Zm295 151H814.5a1 1 0 0 1 0-2H867v-19h2v19h104a1 1 0 0 1 0 2h-50v19h-2v-19Zm-63 227a1 1 0 0 1 0-2h36a1 1 0 0 1 0 2h-36Zm-513 25v-19h2v19h54v2H294v-2h51Z"/>
</svg>
